#N canvas 229 50 662 630 12;
#X obj 20 80 cnv 15 600 260 empty empty tracks 20 12 0 12 -228856 -66577
0;
#X obj 30 14 inlet;
#X obj 30 44 t f f f f f f, f 70;
#X obj 30 104 track 1 0 1 2 3 4 5;
#X obj 126 105 track 2 6 7 8 9 10 11;
#X obj 222 105 track 3 12 13 14 15 16 17;
#X obj 318 105 track 4 18 19 20 21 22 23;
#X obj 414 105 track 5 24 25 26 27 28 29;
#X obj 509 105 track 6 30 31 32 33 34 35;
#X obj 124 582 dac~;
#X obj 124 535 *~;
#N canvas 96 150 450 300 snare 0;
#X msg 153 67 1 \, 0 50;
#X obj 153 101 line~;
#X obj 98 68 noise~;
#X obj 122 152 *~;
#X obj 153 15 inlet;
#X obj 123 205 outlet~;
#X connect 0 0 1 0;
#X connect 1 0 3 1;
#X connect 2 0 3 0;
#X connect 3 0 5 0;
#X connect 4 0 0 0;
#X restore 126 359 pd snare;
#N canvas 580 246 450 300 kick 0;
#X obj 249 142 line~;
#X obj 129 178 *~;
#X msg 249 118 1 \, 0 50;
#X obj 129 147 osc~;
#X obj 129 109 line~;
#X msg 129 76 220 \, 50 20;
#X msg 178 111 0.5;
#X obj 129 237 outlet~;
#X obj 285 30 inlet;
#X connect 0 0 1 1;
#X connect 1 0 7 0;
#X connect 2 0 0 0;
#X connect 3 0 1 0;
#X connect 4 0 3 0;
#X connect 5 0 4 0;
#X connect 6 0 3 1;
#X connect 8 0 5 0;
#X connect 8 0 6 0;
#X connect 8 0 2 0;
#X restore 30 358 pd kick;
#N canvas 96 150 450 300 hihat 0;
#X obj 153 101 line~;
#X obj 98 68 noise~;
#X obj 122 152 *~;
#X obj 153 15 inlet;
#X obj 123 205 outlet~;
#X msg 153 67 1 \, 0 20;
#X connect 0 0 2 1;
#X connect 1 0 2 0;
#X connect 2 0 4 0;
#X connect 3 0 5 0;
#X connect 5 0 0 0;
#X restore 222 361 pd hihat;
#X obj 168 503 r volume;
#X connect 1 0 2 0;
#X connect 2 0 3 0;
#X connect 2 1 4 0;
#X connect 2 2 5 0;
#X connect 2 3 6 0;
#X connect 2 4 7 0;
#X connect 2 5 8 0;
#X connect 3 0 12 0;
#X connect 4 0 11 0;
#X connect 5 0 13 0;
#X connect 10 0 9 0;
#X connect 10 0 9 1;
#X connect 11 0 10 0;
#X connect 12 0 10 0;
#X connect 13 0 10 0;
#X connect 14 0 10 1;
#X coords 0 -1 1 1 600 260 1 20 80;
