#N canvas 116 66 1241 664 12;
#X obj 604 5 loadbang;
#X text 286 172 hits;
#X text 768 167 velocity;
#X obj 286 111 inlet;
#X obj 380 110 inlet;
#X obj 474 108 inlet;
#X obj 662 106 inlet;
#X obj 758 106 inlet;
#X obj 854 106 inlet;
#X msg 649 70 60;
#X text 666 166 tune;
#X obj 20 20 cnv 15 110 290 empty empty \$1 20 12 0 12 -204800 -66577
0;
#X obj 51 122 bng 15 250 50 0 empty \$0-ui-11 empty 17 7 0 10 -262144
-1 -1;
#X floatatom 50 47 5 0 127 0 HIT #0-ui-1 #0-en-1;
#X floatatom 50 72 5 0 127 0 LEN #0-ui-2 #0-en-2;
#X floatatom 50 97 5 0 127 0 ROT #0-ui-3 #0-en-3;
#X floatatom 50 172 5 0 127 0 TUN #0-ui-5 #0-en-5;
#X floatatom 50 198 5 0 127 0 VEL #0-ui-6 #0-en-6;
#X floatatom 50 223 5 0 127 0 DUR #0-ui-7 #0-en-7;
#X obj 51 146 hradio 15 1 0 2 \$0-en-4 \$0-ui-4 empty 0 -8 0 10 -262144
-1 -1 0;
#X obj 574 109 inlet;
#X text 576 171 sounds;
#X msg 575 71 0;
#X text 382 169 length;
#X text 476 170 rotation;
#X obj 214 600 noteout;
#X obj 214 557 makenote;
#X obj 214 531 f;
#X obj 214 111 inlet;
#X floatatom 812 485 0 0 0 0 tune #0-en-5 -;
#X floatatom 271 505 0 0 127 1 vel #0-en-5 -;
#X floatatom 272 530 0 0 127 1 duration #0-en-6 -;
#X obj 214 380 euclid;
#X floatatom 227 301 5 0 127 1 hits #0-en-1 -;
#X floatatom 240 326 5 0 127 1 rotation #0-en-3 -;
#X floatatom 253 351 5 0 127 1 length #0-en-2 -;
#X text 82 449 hit_indicator;
#X text 223 130 counter;
#X obj 824 512 ctlout;
#X floatatom 50 249 5 0 127 0 DCY #0-ui-8 #0-en-8;
#X floatatom 50 275 5 0 127 0 CTL #0-ui-9 #0-en-9;
#X obj 100 50 vsl 16 240 0 127 0 0 \$0-en-10 \$0-ui-10 vol 0 -9 0 10
-262144 -1 -1 0 1;
#X text 862 169 duration;
#X obj 951 108 inlet;
#X obj 1045 109 inlet;
#X text 959 171 decay;
#X text 1053 172 ctrl;
#X obj 1144 111 inlet;
#X text 1152 174 level;
#X obj 286 146 s \$0-ui-1;
#X obj 380 145 s \$0-ui-2;
#X obj 474 145 s \$0-ui-3;
#X obj 574 146 s \$0-ui-4;
#X obj 662 145 s \$0-ui-5;
#X obj 758 146 s \$0-ui-6;
#X obj 854 147 s \$0-ui-7;
#X obj 951 149 s \$0-ui-8;
#X obj 1144 152 s \$0-ui-10;
#X obj 1045 150 s \$0-ui-9;
#X obj 85 426 s \$0-ui-11;
#X floatatom 806 417 0 0 0 0 decay #0-en-8 -;
#X obj 815 446 ctlout;
#X obj 835 420 i \$5;
#X floatatom 809 288 0 0 0 0 ctrl #0-en-9 -;
#X obj 822 319 ctlout;
#X floatatom 808 356 0 0 0 0 level #0-en-10 -;
#X obj 819 385 ctlout;
#X obj 283 573 r channel;
#X obj 876 356 r channel;
#X obj 879 288 r channel;
#X obj 871 420 r channel;
#X obj 882 486 r channel;
#X obj 333 409 select 0 1;
#X obj 333 388 hradio 15 1 0 2 empty \$0-en-4 note 0 -8 0 10 -262144
-1 -1 0;
#X floatatom 232 480 5 0 0 1 note - -;
#X obj 328 438 i \$2;
#X obj 366 438 i \$3;
#X obj 844 486 i \$4;
#X obj 632 227 t b b b b;
#X obj 604 29 t b b b;
#X text 23 145 SND;
#X text 707 30 track <name> <s1> <s2> <cc-tune> <cc-decay> <cc-level>
<cc-ctrl>, f 66;
#X floatatom 898 319 5 0 0 0 - - -;
#X floatatom 899 391 5 0 0 0 - - -;
#X floatatom 895 452 5 0 0 0 - - -;
#X floatatom 898 516 5 0 0 0 - - -;
#X obj 838 356 i \$7;
#X obj 841 288 i \$6;
#X connect 0 0 79 0;
#X connect 3 0 49 0;
#X connect 4 0 50 0;
#X connect 5 0 51 0;
#X connect 6 0 53 0;
#X connect 7 0 54 0;
#X connect 8 0 55 0;
#X connect 9 0 53 0;
#X connect 9 0 54 0;
#X connect 9 0 55 0;
#X connect 9 0 56 0;
#X connect 9 0 58 0;
#X connect 20 0 52 0;
#X connect 22 0 52 0;
#X connect 26 0 25 0;
#X connect 26 1 25 1;
#X connect 27 0 26 0;
#X connect 28 0 32 0;
#X connect 29 0 38 0;
#X connect 30 0 26 1;
#X connect 31 0 26 2;
#X connect 32 0 27 0;
#X connect 32 0 59 0;
#X connect 33 0 32 1;
#X connect 34 0 32 2;
#X connect 35 0 32 3;
#X connect 43 0 56 0;
#X connect 44 0 58 0;
#X connect 47 0 57 0;
#X connect 60 0 61 0;
#X connect 62 0 61 1;
#X connect 62 0 84 0;
#X connect 63 0 64 0;
#X connect 65 0 66 0;
#X connect 67 0 25 2;
#X connect 68 0 66 2;
#X connect 69 0 64 2;
#X connect 70 0 61 2;
#X connect 71 0 38 2;
#X connect 72 0 75 0;
#X connect 72 1 76 0;
#X connect 73 0 72 0;
#X connect 74 0 27 1;
#X connect 75 0 74 0;
#X connect 76 0 74 0;
#X connect 77 0 38 1;
#X connect 77 0 85 0;
#X connect 78 0 77 0;
#X connect 78 1 62 0;
#X connect 78 2 86 0;
#X connect 78 3 87 0;
#X connect 79 0 22 0;
#X connect 79 1 78 0;
#X connect 79 2 9 0;
#X connect 86 0 66 1;
#X connect 86 0 83 0;
#X connect 87 0 64 1;
#X connect 87 0 82 0;
#X coords 0 -1 1 1 110 290 2 20 20;
