#N canvas 38 36 1336 640 12;
#X obj 20 300 cnv 15 720 320 empty empty tracks 20 12 0 12 -228856
-66577 0;
#X obj 30 65 inlet;
#X obj 38 141 ctlin;
#X obj 38 175 pack f f;
#X msg 38 205 \$2 \$1;
#X obj 30 320 track BD 35 36 20 23 96 24;
#X obj 147 320 track SD 40 38 25 28 29 97 1;
#X obj 264 321 track LT 41 43 46 47 48 102 2;
#X obj 381 322 track HC 54 39 58 59 60 106;
#X obj 497 321 track CH 44 42 61 62 63 107;
#X obj 613 322 track OH 58 46 80 81 82 108;
#X obj 40 235 route 0 1 2 3 4 5 6 7 8 9 10 11 12 13 14 15 16 17 18
19 20 21 22 23 24 25 26 27 28 29 30 31 32 33 34 35 36 37 38 39 40 41
42 43 44 45 46 47 48 49 50 51 52 53 54 55 56 57 58, f 180;
#X obj 128 20 loadbang;
#X msg 128 44 10;
#X obj 128 68 s channel;
#X obj 30 104 t f f f f f f f, f 100;
#X connect 1 0 15 0;
#X connect 2 0 3 0;
#X connect 2 1 3 1;
#X connect 3 0 4 0;
#X connect 4 0 11 0;
#X connect 11 0 5 1;
#X connect 11 1 5 2;
#X connect 11 2 5 3;
#X connect 11 3 5 4;
#X connect 11 4 5 5;
#X connect 11 5 5 6;
#X connect 11 6 5 7;
#X connect 11 7 5 8;
#X connect 11 8 5 9;
#X connect 11 9 5 10;
#X connect 11 10 6 1;
#X connect 11 11 6 2;
#X connect 11 12 6 3;
#X connect 11 13 6 4;
#X connect 11 14 6 5;
#X connect 11 15 6 6;
#X connect 11 16 6 7;
#X connect 11 17 6 8;
#X connect 11 18 6 9;
#X connect 11 19 6 10;
#X connect 11 20 7 1;
#X connect 11 21 7 2;
#X connect 11 22 7 3;
#X connect 11 23 7 4;
#X connect 11 24 7 5;
#X connect 11 25 7 6;
#X connect 11 26 7 7;
#X connect 11 27 7 8;
#X connect 11 28 7 9;
#X connect 11 29 7 10;
#X connect 11 30 8 1;
#X connect 11 31 8 2;
#X connect 11 32 8 3;
#X connect 11 33 8 4;
#X connect 11 34 8 5;
#X connect 11 35 8 6;
#X connect 11 36 8 7;
#X connect 11 37 8 8;
#X connect 11 38 8 9;
#X connect 11 39 8 10;
#X connect 11 40 9 1;
#X connect 11 41 9 2;
#X connect 11 42 9 3;
#X connect 11 43 9 4;
#X connect 11 44 9 5;
#X connect 11 45 9 6;
#X connect 11 46 9 7;
#X connect 11 47 9 8;
#X connect 11 48 9 9;
#X connect 11 49 9 10;
#X connect 11 50 10 1;
#X connect 11 51 10 2;
#X connect 11 52 10 3;
#X connect 11 53 10 4;
#X connect 11 54 10 5;
#X connect 11 55 10 6;
#X connect 11 56 10 7;
#X connect 11 57 10 8;
#X connect 11 58 10 9;
#X connect 11 59 10 10;
#X connect 12 0 13 0;
#X connect 13 0 14 0;
#X connect 15 0 5 0;
#X connect 15 1 6 0;
#X connect 15 2 7 0;
#X connect 15 3 8 0;
#X connect 15 4 9 0;
#X connect 15 5 10 0;
#X coords 0 -1 1 1 720 320 1 20 300;
