#N canvas 38 36 986 674 12;
#X obj 20 300 cnv 15 940 300 empty empty channels 20 12 0 12 -228856
-66577 0;
#X obj 186 321 channel 1;
#X obj 30 320 channel 0;
#X obj 342 321 channel 2;
#X obj 498 321 channel 3;
#X obj 654 323 channel 4;
#X obj 811 323 channel 5;
#X obj 30 33 inlet;
#X obj 58 107 ctlin;
#X obj 58 141 pack f f;
#X msg 58 171 \$2 \$1;
#X obj 30 72 t f f f f f f, f 112;
#X obj 58 213 route 0 1 2 3 4 5 6 7 8 9 10 11 12 13 14 15 16 17 18
19 20 21 22 23 24 25 26 27 28 29 30 31 32 33 34 35, f 127;
#X connect 7 0 11 0;
#X connect 8 0 9 0;
#X connect 8 1 9 1;
#X connect 9 0 10 0;
#X connect 10 0 12 0;
#X connect 11 0 2 0;
#X connect 11 1 1 0;
#X connect 11 2 3 0;
#X connect 11 3 4 0;
#X connect 11 4 5 0;
#X connect 11 5 6 0;
#X connect 12 0 2 1;
#X connect 12 1 2 2;
#X connect 12 2 2 3;
#X connect 12 3 2 4;
#X connect 12 4 2 5;
#X connect 12 5 2 6;
#X connect 12 6 1 1;
#X connect 12 7 1 2;
#X connect 12 8 1 3;
#X connect 12 9 1 4;
#X connect 12 10 1 5;
#X connect 12 11 1 6;
#X connect 12 12 3 1;
#X connect 12 13 3 2;
#X connect 12 14 3 3;
#X connect 12 15 3 4;
#X connect 12 16 3 5;
#X connect 12 17 3 6;
#X connect 12 18 4 1;
#X connect 12 19 4 2;
#X connect 12 20 4 3;
#X connect 12 21 4 4;
#X connect 12 22 4 5;
#X connect 12 23 4 6;
#X connect 12 24 5 1;
#X connect 12 25 5 2;
#X connect 12 26 5 3;
#X connect 12 27 5 4;
#X connect 12 28 5 5;
#X connect 12 29 5 6;
#X connect 12 30 6 1;
#X connect 12 31 6 2;
#X connect 12 32 6 3;
#X connect 12 33 6 4;
#X connect 12 34 6 5;
#X connect 12 35 6 6;
#X coords 0 -1 1 1 940 300 1 20 300;
