#N canvas 38 36 1336 640 12;
#X obj 20 300 cnv 15 1300 320 empty empty tracks 20 12 0 12 -228856
-66577 0;
#X obj 30 33 inlet;
#X obj 58 107 ctlin;
#X obj 58 141 pack f f;
#X msg 58 171 \$2 \$1;
#X obj 30 320 track BD 35 36 20 23 96 24;
#X obj 147 320 track SD 40 38 25 28 29 97 1;
#X obj 264 321 track LT 41 43 46 47 48 102 2;
#X obj 380 320 track MT 45 47 49 50 51 103 3;
#X obj 497 320 track HT 48 50 52 53 54 104;
#X obj 614 321 track RS 56 37 55 56 57 105;
#X obj 731 322 track HC 54 39 58 59 60 106;
#X obj 847 321 track CH 44 42 61 62 63 107;
#X obj 964 321 track OH 58 46 80 81 82 108;
#X obj 1082 320 track CC 61 49 83 84 85 109;
#X obj 1199 319 track RC 63 51 86 87 88 110;
#X obj 30 72 t f f f f f f f f f f f, f 182;
#X obj 40 255 route 0 1 2 3 4 5 6 7 8 9 10 11 12 13 14 15 16 17 18
19 20 21 22 23 24 25 26 27 28 29 30 31 32 33 34 35 36 37 38 39 40 41
42 43 44 45 46 47 48 49 50 51 52 53 54 55 56 57 58, f 180;
#X obj 182 112 loadbang;
#X msg 182 136 10;
#X obj 182 160 s channel;
#X obj 57 207 route 59 60 61 62 63 64 65 66 67 68 69 70 71 72 73 74
75 76 77 78 79 80 81 82 83 84 85 86 87 88 89 90 91 92 93 94 95 96 97
98 99 100 101 102 103 104 105 106 107 108, f 176;
#X connect 1 0 16 0;
#X connect 2 0 3 0;
#X connect 2 1 3 1;
#X connect 3 0 4 0;
#X connect 4 0 17 0;
#X connect 4 0 21 0;
#X connect 16 0 5 0;
#X connect 16 1 6 0;
#X connect 16 2 7 0;
#X connect 16 3 8 0;
#X connect 16 4 9 0;
#X connect 16 5 10 0;
#X connect 16 6 11 0;
#X connect 16 7 12 0;
#X connect 16 8 13 0;
#X connect 16 9 14 0;
#X connect 16 10 15 0;
#X connect 17 0 5 1;
#X connect 17 1 5 2;
#X connect 17 2 5 3;
#X connect 17 3 5 4;
#X connect 17 4 5 5;
#X connect 17 5 5 6;
#X connect 17 6 5 7;
#X connect 17 7 5 8;
#X connect 17 8 5 9;
#X connect 17 9 5 10;
#X connect 17 10 6 1;
#X connect 17 11 6 2;
#X connect 17 12 6 3;
#X connect 17 13 6 4;
#X connect 17 14 6 5;
#X connect 17 15 6 6;
#X connect 17 16 6 7;
#X connect 17 17 6 8;
#X connect 17 18 6 9;
#X connect 17 19 6 10;
#X connect 17 20 7 1;
#X connect 17 21 7 2;
#X connect 17 22 7 3;
#X connect 17 23 7 4;
#X connect 17 24 7 5;
#X connect 17 25 7 6;
#X connect 17 26 7 7;
#X connect 17 27 7 8;
#X connect 17 28 7 9;
#X connect 17 29 7 10;
#X connect 17 30 8 1;
#X connect 17 31 8 2;
#X connect 17 32 8 3;
#X connect 17 33 8 4;
#X connect 17 34 8 5;
#X connect 17 35 8 6;
#X connect 17 36 8 7;
#X connect 17 37 8 8;
#X connect 17 38 8 9;
#X connect 17 39 8 10;
#X connect 17 40 9 1;
#X connect 17 41 9 2;
#X connect 17 42 9 3;
#X connect 17 43 9 4;
#X connect 17 44 9 5;
#X connect 17 45 9 6;
#X connect 17 46 9 7;
#X connect 17 47 9 8;
#X connect 17 48 9 9;
#X connect 17 49 9 10;
#X connect 17 50 10 1;
#X connect 17 51 10 2;
#X connect 17 52 10 3;
#X connect 17 53 10 4;
#X connect 17 54 10 5;
#X connect 17 55 10 6;
#X connect 17 56 10 7;
#X connect 17 57 10 8;
#X connect 17 58 10 9;
#X connect 17 59 10 10;
#X connect 18 0 19 0;
#X connect 19 0 20 0;
#X connect 21 0 11 1;
#X connect 21 1 11 2;
#X connect 21 2 11 3;
#X connect 21 3 11 4;
#X connect 21 4 11 5;
#X connect 21 5 11 6;
#X connect 21 6 11 7;
#X connect 21 7 11 8;
#X connect 21 8 11 9;
#X connect 21 9 11 10;
#X connect 21 10 12 1;
#X connect 21 11 12 2;
#X connect 21 12 12 3;
#X connect 21 13 12 4;
#X connect 21 14 12 5;
#X connect 21 15 12 6;
#X connect 21 16 12 7;
#X connect 21 17 12 8;
#X connect 21 18 12 9;
#X connect 21 19 12 10;
#X connect 21 20 13 1;
#X connect 21 21 13 2;
#X connect 21 22 13 3;
#X connect 21 23 13 4;
#X connect 21 24 13 5;
#X connect 21 25 13 6;
#X connect 21 26 13 7;
#X connect 21 27 13 8;
#X connect 21 28 13 9;
#X connect 21 29 13 10;
#X connect 21 30 14 1;
#X connect 21 31 14 2;
#X connect 21 32 14 3;
#X connect 21 33 14 4;
#X connect 21 34 14 5;
#X connect 21 35 14 6;
#X connect 21 36 14 7;
#X connect 21 37 14 8;
#X connect 21 38 14 9;
#X connect 21 39 14 10;
#X connect 21 40 15 1;
#X connect 21 41 15 2;
#X connect 21 42 15 3;
#X connect 21 43 15 4;
#X connect 21 44 15 5;
#X connect 21 45 15 6;
#X connect 21 46 15 7;
#X connect 21 47 15 8;
#X connect 21 48 15 9;
#X connect 21 49 15 10;
#X coords 0 -1 1 1 1300 320 1 20 300;
