#N canvas 190 34 717 659 12;
#X obj 152 608 metro 1 120 permin, f 28;
#X msg 152 558 tempo \$1 permin;
#X obj 660 376 bng 15 250 50 0 empty empty empty 17 7 0 10 -262144
-1 -1;
#X obj 251 375 bng 15 250 50 0 empty empty empty 17 7 0 10 -262144
-1 -1;
#X obj 284 375 bng 15 250 50 0 empty empty empty 17 7 0 10 -262144
-1 -1;
#X obj 317 375 bng 15 250 50 0 empty empty empty 17 7 0 10 -262144
-1 -1;
#X obj 350 376 bng 15 250 50 0 empty empty empty 17 7 0 10 -262144
-1 -1;
#X obj 384 376 bng 15 250 50 0 empty empty empty 17 7 0 10 -262144
-1 -1;
#X obj 417 376 bng 15 250 50 0 empty empty empty 17 7 0 10 -262144
-1 -1;
#X obj 450 376 bng 15 250 50 0 empty empty empty 17 7 0 10 -262144
-1 -1;
#X obj 484 376 bng 15 250 50 0 empty empty empty 17 7 0 10 -262144
-1 -1;
#X obj 517 376 bng 15 250 50 0 empty empty empty 17 7 0 10 -262144
-1 -1;
#X obj 550 377 bng 15 250 50 0 empty empty empty 17 7 0 10 -262144
-1 -1;
#X obj 209 395 expr 1./3;
#X msg 284 396 0.5;
#X msg 317 396 1;
#X msg 350 396 2;
#X msg 384 396 3;
#X msg 417 396 4;
#X msg 450 396 5;
#X msg 484 396 6;
#X msg 517 396 7;
#X msg 550 397 8;
#X obj 20 70 cnv 15 50 270 empty empty empty 20 12 0 14 -204800 -66577
0;
#X obj 25 13 loadbang;
#X text 48 120 x3;
#X text 48 140 x2;
#X text 48 160 x1;
#X text 48 181 /2;
#X text 48 202 /3;
#X text 48 222 /4;
#X text 48 241 /5;
#X text 48 262 /6;
#X obj 25 79 vradio 20 1 0 12 empty empty empty 0 -8 0 10 -262144 -1
-1 4;
#X text 48 283 /7;
#X text 48 303 /8;
#X msg 25 45 4;
#X text 48 100 x4;
#X text 48 80 x5;
#X obj 251 338 select 0 1 2 3 4 5 6 7 8 9 10 11, f 48;
#X obj 584 377 bng 15 250 50 0 empty empty empty 17 7 0 10 -262144
-1 -1;
#X msg 584 397 8;
#X obj 622 377 bng 15 250 50 0 empty empty empty 17 7 0 10 -262144
-1 -1;
#X msg 622 397 8;
#X obj 26 605 outlet;
#X obj 26 322 bng 15 250 50 0 empty empty empty 17 7 0 10 -262144 -1
-1;
#X obj 108 459 r start;
#X obj 152 512 r bpm;
#X text 251 310 select clock multiplication or division from radio
group;
#X connect 0 0 45 0;
#X connect 1 0 0 0;
#X connect 3 0 13 0;
#X connect 4 0 14 0;
#X connect 5 0 15 0;
#X connect 6 0 16 0;
#X connect 7 0 17 0;
#X connect 8 0 18 0;
#X connect 9 0 19 0;
#X connect 10 0 20 0;
#X connect 11 0 21 0;
#X connect 12 0 22 0;
#X connect 13 0 0 1;
#X connect 14 0 0 1;
#X connect 15 0 0 1;
#X connect 16 0 0 1;
#X connect 17 0 0 1;
#X connect 18 0 0 1;
#X connect 19 0 0 1;
#X connect 20 0 0 1;
#X connect 21 0 0 1;
#X connect 22 0 0 1;
#X connect 24 0 36 0;
#X connect 33 0 39 0;
#X connect 36 0 33 0;
#X connect 39 0 3 0;
#X connect 39 1 4 0;
#X connect 39 2 5 0;
#X connect 39 3 6 0;
#X connect 39 4 7 0;
#X connect 39 5 8 0;
#X connect 39 6 9 0;
#X connect 39 7 10 0;
#X connect 39 8 11 0;
#X connect 39 9 12 0;
#X connect 39 10 40 0;
#X connect 39 11 42 0;
#X connect 39 12 2 0;
#X connect 40 0 41 0;
#X connect 41 0 0 1;
#X connect 42 0 43 0;
#X connect 43 0 0 1;
#X connect 45 0 44 0;
#X connect 46 0 0 0;
#X connect 47 0 1 0;
#X coords 0 -1 1 1 50 270 2 20 70;
