#N canvas 145 33 817 701 12;
#X obj 363 668 noteout;
#X obj 363 631 makenote;
#X obj 363 599 f;
#X floatatom 407 575 0 0 0 3 pitch - -;
#X floatatom 496 574 0 0 0 3 vel - -;
#X floatatom 588 572 0 0 0 3 length - -;
#X floatatom 740 538 5 0 0 0 channel - -;
#X obj 363 495 euclid;
#X floatatom 406 457 5 0 0 0 hits - -;
#X floatatom 514 456 5 0 0 0 rotation - -;
#X floatatom 611 456 5 0 0 0 length - -;
#X obj 708 24 loadbang;
#X obj 740 437 i \$1;
#X text 405 340 hits;
#X text 501 337 rotation;
#X text 595 338 length;
#X text 414 238 pitch;
#X text 497 241 velocity;
#X text 598 237 note_length;
#X text 259 565 hit_indicator;
#X obj 405 314 s \$0-cc-s-1;
#X obj 499 313 s \$0-cc-s-2;
#X obj 593 313 s \$0-cc-s-3;
#X obj 401 215 s \$0-cc-s-4;
#X obj 497 216 s \$0-cc-s-5;
#X obj 593 217 s \$0-cc-s-6;
#X obj 407 429 r \$0-cc-s-1;
#X obj 514 429 r \$0-cc-s-2;
#X obj 612 429 r \$0-cc-s-3;
#X obj 407 541 r \$0-cc-s-4;
#X obj 496 541 r \$0-cc-s-5;
#X obj 588 542 r \$0-cc-s-6;
#X obj 262 542 s \$0-cc-s-7;
#X text 199 359 counter;
#X obj 405 279 inlet;
#X obj 499 278 inlet;
#X obj 593 276 inlet;
#X obj 401 176 inlet;
#X obj 497 176 inlet;
#X obj 593 176 inlet;
#X obj 20 20 cnv 15 140 270 empty empty channel_\$1 20 12 0 11 -204800
-66577 0;
#X obj 26 60 hsl 128 15 0 127 0 0 \$0-cc-s-1 \$0-cc-s-1 hits -2 -8
0 10 -262144 -1 -1 0 1;
#X obj 26 98 hsl 128 15 0 127 0 0 \$0-cc-s-2 \$0-cc-s-2 rotation -2
-8 0 10 -262144 -1 -1 0 1;
#X obj 26 136 hsl 128 15 0 127 0 0 \$0-cc-s-3 \$0-cc-s-3 length -2
-8 0 10 -262144 -1 -1 0 1;
#X obj 23 157 bng 15 250 50 0 \$0-cc-r-7 \$0-cc-s-7 empty 17 7 0 10
-262144 -1 -1;
#X obj 26 191 hsl 128 15 0 127 0 0 \$0-cc-s-4 \$0-cc-s-4 pitch -2 -8
0 10 -262144 -1 -1 6000 1;
#X obj 26 232 hsl 128 15 0 127 0 0 \$0-cc-s-5 \$0-cc-s-5 velocity -2
-8 0 10 -262144 -1 -1 6000 1;
#X obj 26 271 hsl 128 15 0 127 0 0 \$0-cc-s-6 \$0-cc-s-6 note_length
-2 -8 0 10 -262144 -1 -1 6000 1;
#X floatatom 119 40 5 0 0 0 - #0-cc-s-1 -;
#X floatatom 119 78 5 0 0 0 - #0-cc-s-2 -;
#X floatatom 119 116 5 0 0 0 - #0-cc-s-3 -;
#X floatatom 119 171 5 0 0 0 - #0-cc-s-4 -;
#X floatatom 119 212 5 0 0 0 - #0-cc-s-5 -;
#X floatatom 118 251 5 0 0 0 - #0-cc-s-6 -;
#X msg 708 185 60;
#X obj 708 48 t b b;
#X obj 159 20 channel_clock;
#X obj 159 334 int 1;
#X obj 218 334 + 1;
#X obj 243 258 r reset;
#X msg 243 282 1;
#X connect 1 0 0 0;
#X connect 1 1 0 1;
#X connect 2 0 1 0;
#X connect 3 0 2 1;
#X connect 4 0 1 1;
#X connect 5 0 1 2;
#X connect 6 0 0 2;
#X connect 7 0 2 0;
#X connect 7 0 32 0;
#X connect 8 0 7 1;
#X connect 9 0 7 2;
#X connect 10 0 7 3;
#X connect 11 0 55 0;
#X connect 12 0 6 0;
#X connect 26 0 8 0;
#X connect 27 0 9 0;
#X connect 28 0 10 0;
#X connect 29 0 3 0;
#X connect 30 0 4 0;
#X connect 31 0 5 0;
#X connect 34 0 20 0;
#X connect 35 0 21 0;
#X connect 36 0 22 0;
#X connect 37 0 23 0;
#X connect 38 0 24 0;
#X connect 39 0 25 0;
#X connect 54 0 23 0;
#X connect 54 0 24 0;
#X connect 54 0 25 0;
#X connect 55 0 54 0;
#X connect 55 1 12 0;
#X connect 56 0 57 0;
#X connect 57 0 58 0;
#X connect 57 0 7 0;
#X connect 58 0 57 1;
#X connect 59 0 60 0;
#X connect 60 0 57 0;
#X coords 0 -1 1 1 190 270 1 20 20;
